<?xml version="1.0" encoding="UTF-8"?>
<svg version="1.1" xmlns="http://www.w3.org/2000/svg" width="32" height="32">
<path d="M0 0 C4.43846588 1.98145798 7.06416132 4.57462348 9.30859375 8.94140625 C11.04425077 14.10915342 10.55149757 19.17316429 9 24.3125 C5.71198651 28.73076812 1.99966176 31.41052606 -3.46484375 32.484375 C-8.961219 32.78925868 -12.90834109 31.70927889 -17.37109375 28.47265625 C-21.29631005 24.9239595 -22.18728992 21.22999204 -22.5 16.125 C-22.33195171 10.81947529 -20.62798408 6.87880767 -17 3 C-11.62503068 -0.95379099 -6.44055436 -0.76902142 0 0 Z M-14.0625 8.625 C-16.04410196 12.07682277 -17.08274986 14.02800669 -17 18 C-15.00773389 21.69992277 -13.50497559 23.66334961 -10 26 C-5.48318695 26.43711094 -3.11670154 26.60690301 0.875 24.4375 C3.59827621 21.31374199 4.43391675 19.10410354 5 15 C3.65066169 11.3070741 2.06677904 8.47183807 -1 6 C-5.79585948 4.95141377 -10.61392931 4.77190489 -14.0625 8.625 Z " fill="#74554F" transform="translate(22,0)"/>
<path d="M0 0 C4.87773605 0.45374289 7.52177888 1.52177888 11 5 C14.51634694 10.09264039 14.69181358 15.01727408 14 21 C12.66250415 25.24851624 11.43067267 26.67268877 7.875 29.375 C3.68317602 31.54720857 -0.38776652 31.37650886 -5 31 C-3.68 30.67 -2.36 30.34 -1 30 C-1 28.68 -1 27.36 -1 26 C-0.071875 25.649375 0.85625 25.29875 1.8125 24.9375 C5.92943384 22.43505002 6.83878022 20.64487912 8 16 C6.82607577 12.23108537 5.79207427 9.79207427 3 7 C0.56747339 6.53837573 0.56747339 6.53837573 -2.125 6.375 C-3.03507813 6.30023437 -3.94515625 6.22546875 -4.8828125 6.1484375 C-5.58148438 6.09945313 -6.28015625 6.05046875 -7 6 C-6.34 5.34 -5.68 4.68 -5 4 C-4.01 4 -3.02 4 -2 4 C-1.34 2.68 -0.68 1.36 0 0 Z " fill="#6C36B3" transform="translate(18,0)"/>
<path d="M0 0 C1 3 1 3 0 6 C0.33 6.33 0.66 6.66 1 7 C1.25 9.4375 1.25 9.4375 1 12 C-2.66865241 14.44576827 -4.67200343 14.23607254 -9 14 C-9.66 13.67 -10.32 13.34 -11 13 C-11.08114106 11.22992286 -11.13925505 9.45877902 -11.1875 7.6875 C-11.22230469 6.70136719 -11.25710938 5.71523437 -11.29296875 4.69921875 C-11 2 -11 2 -9.75 0.125 C-6.5647054 -1.92268939 -3.58820164 -0.64705275 0 0 Z " fill="#020202" transform="translate(21,9)"/>
<path d="M0 0 C4.87773605 0.45374289 7.52177888 1.52177888 11 5 C12.93722595 8.27324384 14 10.1851331 14 14 C11.25 14.375 11.25 14.375 8 14 C5.6875 11.0625 5.6875 11.0625 4 8 C2.33657163 6.33657163 0.2174291 6.63951903 -2.0625 6.4375 C-2.98160156 6.35371094 -3.90070312 6.26992187 -4.84765625 6.18359375 C-5.91306641 6.09271484 -5.91306641 6.09271484 -7 6 C-6.34 5.34 -5.68 4.68 -5 4 C-4.01 4 -3.02 4 -2 4 C-1.34 2.68 -0.68 1.36 0 0 Z " fill="#4D1290" transform="translate(18,0)"/>
<path d="M0 0 C-0.6875 1.9375 -0.6875 1.9375 -2 4 C-3.66666667 4.33333333 -5.33333333 4.66666667 -7 5 C-8.14209817 6.78228936 -8.14209817 6.78228936 -9 9 C-10.3050581 10.68889872 -11.63360658 12.3603279 -13 14 C-13 11.36 -13 8.72 -13 6 C-13.66 5.67 -14.32 5.34 -15 5 C-9.37743903 0.41317394 -7.11167844 -0.11470449 0 0 Z " fill="#C03061" transform="translate(18,0)"/>
<path d="M0 0 C0.66 0 1.32 0 2 0 C3.04167441 4.09725269 2.94409525 7.61495224 2.5625 11.8125 C2.46066406 12.97394531 2.35882812 14.13539062 2.25390625 15.33203125 C2.17011719 16.21246094 2.08632812 17.09289062 2 18 C1.01 17.34 0.02 16.68 -1 16 C-1 15.34 -1 14.68 -1 14 C-1.66 13.67 -2.32 13.34 -3 13 C-3.44539877 4.2404908 -3.44539877 4.2404908 0 0 Z " fill="#F4B40C" transform="translate(3,6)"/>
<path d="M0 0 C2.91227269 3.28804981 4.49701212 5.59885603 5 10 C1.6875 9.875 1.6875 9.875 -2 9 C-3.80842924 6.25818793 -5 4.32132707 -5 1 C-2 2 -2 2 -1 3 C-0.67 2.01 -0.34 1.02 0 0 Z " fill="#A7883B" transform="translate(5,18)"/>
<path d="M0 0 C0.75 1.75 0.75 1.75 1 4 C-0.375 6.25 -0.375 6.25 -3 8 C-6.02991489 8.33318652 -8.96503351 8.23345896 -12 8 C-10.68 7.67 -9.36 7.34 -8 7 C-8 5.68 -8 4.36 -8 3 C-2.25 0 -2.25 0 0 0 Z " fill="#9E6997" transform="translate(25,23)"/>
<path d="M0 0 C2.33936818 2.12669835 3.80653848 4.06224856 5 7 C5 7.99 5 8.98 5 10 C3.35 10 1.7 10 0 10 C-0.103125 9.236875 -0.20625 8.47375 -0.3125 7.6875 C-1.04364039 4.82940576 -1.76951913 3.84257115 -4 2 C-2.68 1.34 -1.36 0.68 0 0 Z " fill="#310DF5" transform="translate(27,4)"/>
<path d="M0 0 C1.98 0 3.96 0 6 0 C6 1.65 6 3.3 6 5 C4.02 4.34 2.04 3.68 0 3 C0 2.01 0 1.02 0 0 Z " fill="#7238EE" transform="translate(26,14)"/>
<path d="M0 0 C-0.59861742 2.35171131 -1.26924352 4.6859378 -2 7 C-2.99 7.495 -2.99 7.495 -4 8 C-4.33 6.02 -4.66 4.04 -5 2 C-2 0 -2 0 0 0 Z " fill="#F84859" transform="translate(10,1)"/>
<path d="M0 0 C1.98 0.495 1.98 0.495 4 1 C4.33 2.32 4.66 3.64 5 5 C3.68 5.99 2.36 6.98 1 8 C0.34 7.67 -0.32 7.34 -1 7 C-0.649375 6.401875 -0.29875 5.80375 0.0625 5.1875 C1.33304698 2.89186786 1.33304698 2.89186786 0 0 Z " fill="#512A73" transform="translate(24,22)"/>
<path d="M0 0 C0.66 0 1.32 0 2 0 C2.33 1.32 2.66 2.64 3 4 C2.01 4.66 1.02 5.32 0 6 C-0.38218767 4.34385343 -0.71395102 2.67542976 -1 1 C-0.67 0.67 -0.34 0.34 0 0 Z " fill="#9756BE" transform="translate(23,23)"/>
</svg>
